<svg id="Layer_1" data-name="Layer 1" xmlns="http://www.w3.org/2000/svg" viewBox="0 0 438.76 520.04"><defs><style>.cls-1,.cls-4{fill:none;stroke-miterlimit:10;}.cls-1{stroke:#000;}.cls-2{fill:#0077b6;}.cls-3,.cls-6{fill:#fff;}.cls-4{stroke:#fff;stroke-width:6px;}.cls-5{fill:#00b4d8;}.cls-6{font-size:26px;font-family:Gotham-Medium, Gotham;font-weight:500;}.cls-7{letter-spacing:0.05em;}.cls-8{font-size:43px;}.cls-9{letter-spacing:-0.04em;}.cls-10{letter-spacing:-0.05em;}.cls-11{letter-spacing:0em;}</style></defs><path class="cls-1" d="M435.93,215.82" transform="translate(-251.54 -219.31)"/><polygon class="cls-2" points="3.46 108.09 62.88 3.73 182.97 3.01 243.64 106.65 184.22 211.01 64.14 211.73 3.46 108.09"/><path class="cls-3" d="M432.8,225.34,491.72,326,434,427.33,317.39,428,258.47,327.39,316.17,226l116.63-.7m3.42-6-123.55.75L251.54,327.43,314,434.06l123.55-.75,61.13-107.37L436.22,219.31Z" transform="translate(-251.54 -219.31)"/><path class="cls-1" d="M374.6,327.19" transform="translate(-251.54 -219.31)"/><path class="cls-1" d="M251.57,323.93" transform="translate(-251.54 -219.31)"/><path class="cls-1" d="M374.6,327.19" transform="translate(-251.54 -219.31)"/><line class="cls-4" x1="183.17" y1="210.01" x2="123.05" y2="107.87"/><polygon class="cls-5" points="120.54 105.39 8.53 104.06 64.94 6.72 177.94 6.04 120.54 105.39"/><line class="cls-4" x1="3.55" y1="107.1" x2="122.56" y2="108.38"/><line class="cls-4" x1="182.92" y1="3.01" x2="122.56" y2="108.38"/><path class="cls-1" d="M566.25,435" transform="translate(-251.54 -219.31)"/><path class="cls-1" d="M566.25,435" transform="translate(-251.54 -219.31)"/><path class="cls-1" d="M566.25,435" transform="translate(-251.54 -219.31)"/><polygon class="cls-2" points="195.12 215.94 254.53 111.58 374.62 110.86 435.29 214.49 375.88 318.85 255.79 319.58 195.12 215.94"/><path class="cls-3" d="M624.45,333.18l58.92,100.65-57.7,101.35-116.62.7L450.13,435.23l57.7-101.35,116.62-.7m3.43-6-123.55.75L443.2,435.28,505.62,541.9l123.55-.74L690.3,433.79,627.88,327.16Z" transform="translate(-251.54 -219.31)"/><path class="cls-1" d="M566.25,435" transform="translate(-251.54 -219.31)"/><path class="cls-1" d="M566.25,435" transform="translate(-251.54 -219.31)"/><line class="cls-4" x1="374.83" y1="317.86" x2="314.71" y2="215.72"/><polygon class="cls-5" points="312.19 213.23 200.18 211.91 256.6 114.57 369.6 113.89 312.19 213.23"/><line class="cls-4" x1="195.2" y1="214.94" x2="314.21" y2="216.22"/><line class="cls-4" x1="374.58" y1="110.86" x2="314.21" y2="216.22"/><path class="cls-1" d="M375.92,546.18" transform="translate(-251.54 -219.31)"/><path class="cls-1" d="M375.92,546.18" transform="translate(-251.54 -219.31)"/><path class="cls-1" d="M375.92,546.18" transform="translate(-251.54 -219.31)"/><polygon class="cls-2" points="4.79 327.09 64.2 222.73 184.29 222.01 244.96 325.64 185.54 430 65.46 430.73 4.79 327.09"/><path class="cls-3" d="M434.12,444.33,493,545l-57.7,101.35-116.63.7L259.79,546.39,317.49,445l116.63-.71m3.42-6L314,439.06,252.86,546.43l62.43,106.62,123.55-.74L500,544.94,437.54,438.31Z" transform="translate(-251.54 -219.31)"/><path class="cls-1" d="M375.92,546.18" transform="translate(-251.54 -219.31)"/><path class="cls-1" d="M375.92,546.18" transform="translate(-251.54 -219.31)"/><line class="cls-4" x1="184.49" y1="429.01" x2="124.38" y2="326.87"/><polygon class="cls-5" points="121.86 324.38 9.85 323.06 66.26 225.72 179.26 225.04 121.86 324.38"/><line class="cls-4" x1="4.87" y1="326.09" x2="123.88" y2="327.37"/><line class="cls-4" x1="184.24" y1="222.01" x2="123.88" y2="327.37"/><text class="cls-6" transform="translate(190.64 474.73)"><tspan class="cls-7">THE</tspan><tspan class="cls-8"><tspan x="-181.37" y="38">B</tspan><tspan class="cls-9" x="-150.33" y="38">L</tspan><tspan x="-125.43" y="38">OC</tspan><tspan class="cls-10" x="-57.15" y="38">K</tspan><tspan class="cls-11" x="-28.25" y="38">CHAIN HIVE</tspan></tspan></text></svg>